# xmcd CD database file
#
# Track frame offsets:
#	150
#	16094
#	28637
#	44660
#	61579
#	77890
#	88059
#	104979
#	116964
#	136140
#	151634
#	168584
#
# Disc length: 2432 seconds
#
# Revision: 0
# Processed by: cddbd v1.4PL0 Copyright (c) Steve Scherf et al.
# Submitted via: CDex 1.50
#
DISCID=99097e0c
DTITLE=Giovanni - Around the World With Giovanni - Disc 1
DYEAR=1900
DGENRE=New Age
TTITLE0=Hava Nagila
TTITLE1=Andante Cantabile
TTITLE2=Tenderly
TTITLE3=Danny Boy
TTITLE4=Habibati
TTITLE5=Cumana
TTITLE6=Petite Fleure
TTITLE7=I Love Paris
TTITLE8=Two Guitars
TTITLE9=Under The Paris Sky
TTITLE10=La Donna e' mobil
TTITLE11=Blue Hawaii
EXTD=
EXTT0=
EXTT1=
EXTT2=
EXTT3=
EXTT4=
EXTT5=
EXTT6=
EXTT7=
EXTT8=
EXTT9=
EXTT10=
EXTT11=
PLAYORDER=
